# xmcd
#
# Track frame offsets:
#	150
#	13062
#	26377
#	40279
#	52751
#	67525
#	81285
#	93379
#	104846
#	123529
#	134733
#	149559
#	168788
#	182023
#	205294
#	218189
#	233129
#	249854
#
# Disc length: 3511
#
# Revision: 2
# Processed by: cddbd v1.5.1PL0 Copyright (c) Steve Scherf et al.
# Submitted via: ExactAudioCopy v0.90b4
# Normalized: r1:DSETVAR1
#
DISCID=f90db512
DTITLE=Various Artist - Classic Blues Volume 4
DYEAR=2004
DGENRE=Blues
TTITLE0=Big Bill Broonzy - Bull Cow Blues
TTITLE1=Arthur Big Boy Crudup - Rock Me Mama
TTITLE2=Jazz Gillum - Sarah Jane
TTITLE3=Sonny Terry - Train Whistle Blues
TTITLE4=Percy Mayfield - Gone Astray
TTITLE5=Sonny Boy Williamson - Good Morning, School Girl
TTITLE6=Big Walter Horton - Lost Baby Blues
TTITLE7=Peatie Wheatstraw - You Can't Stop Me From Drinking
TTITLE8=Leadbelly - Easy Rider
TTITLE9=Robert Johnson - Walking Blues
TTITLE10=Lonnie Johnson - Four Hands Are Better Than Two
TTITLE11=Byther Smith - Tell Me How You Like It
TTITLE12=Bukka White - Black Train Blues
TTITLE13=Magic Sam - Cummins Prison Farm
TTITLE14=Brownie McGhee - Born for Bad Luck
TTITLE15=Roosevelt Sykes - Jivin Live
TTITLE16=Jimmy Witherspoon - No Rollin' Blues
TTITLE17=Leroy Carr - Mean Mistreater Mama
EXTD=YEAR: 2004
EXTT0=
EXTT1=
EXTT2=
EXTT3=
EXTT4=
EXTT5=
EXTT6=
EXTT7=
EXTT8=
EXTT9=
EXTT10=
EXTT11=
EXTT12=
EXTT13=
EXTT14=
EXTT15=
EXTT16=
EXTT17=
PLAYORDER=
